<svg height="58" viewBox="0 0 37 58" width="37" xmlns="http://www.w3.org/2000/svg"><g fill="none" fill-rule="evenodd" stroke-width="2" transform="translate(1 1)"><path d="m30.2469049 42.692276 3.8325267 2.2257216c.1895488.1093365.423937.1093365.6141652 0 .1895488-.1107032.3064032-.3143424.3064032-.5350655v-30.5411018c0-.220723-.1168544-.4243623-.3064032-.5343821l-22.772349-13.22493331c-.1902282-.11001985-.423937-.11001985-.6141652 0-.1902282.11070321-.3070826.31434245-.3070826.53574886v6.88173625" stroke="#000"/><path d="m23.0787522 55.9174851v-30.5411018c0-.220723-.1168544-.4243623-.3064032-.5343821l-22.772349-13.2249333" stroke="#00a6e1" transform="matrix(-1 0 0 -1 23.078752 67.534552)"/><g stroke="#ef327d"><path d="m6.6141652 36.1579988-.3070826.5350655 22.772349 13.2249333c.1895488.1093365.423937.1093365.6141652 0 .1895488-.1107032.3064032-.3143424.3064032-.5350655v-30.5411018c0-.220723-.1168544-.4243623-.3064032-.5343821l-22.77234899-13.22493331c-.19022816-.11001985-.42393705-.11001985-.61416521 0-.19022816.11070321-.3070826.31434244-.3070826.53574886v30.53973505c0 .2207231.11685444.4243623.3070826.5350655l.3070826-.5350655h.61416521-.61416521.61416521z"/><path d="m12 8v31.5"/><path d="m18 12v31.5"/><path d="m24 15v31.5"/><path d="m30 26.5-24-13.5"/><path d="m30 34.5-24-13.5"/><path d="m30 42.5-24-13.5"/></g></g></svg>