<svg height="74" viewBox="0 0 53 74" width="53" xmlns="http://www.w3.org/2000/svg"><g fill="none" fill-rule="evenodd" stroke-width="2" transform="matrix(.70710678 -.70710678 .70710678 .70710678 -21 47.204581)"><path d="m43.3724522 24.5954742c-1.2156265-.5869918-2.3564371-1.3857763-3.3666713-2.3960105-4.7787141-4.778714-4.8260781-12.47917622-.1057907-17.1994637l3.7082688 3.7082688c-2.6973071 2.6973071-2.6702419 7.0975713.0604518 9.828265 2.7306938 2.7306937 7.1309579 2.7577589 9.828265.0604518 2.6973072-2.6973071 2.670242-7.0975713-.0604518-9.828265l3.66293-3.66292994c.7458131.74581313 1.376381 1.56279361 1.8915656 2.42850517h12.0089804v9.61452067h-3.4534435v-6.1183313h-7.1494138c.9147492 3.9419795-.1459655 8.2288366-3.1918981 11.2747692-1.0349559 1.0349559-2.2131796 1.8407136-3.472462 2.4176556v2.9144746h13.8137739v-6.7510266h3.4534435v10.247216h-22.4473826l-13.8016521 7.866426-1.7509653-3.0134852 10.3724522-5.8955301z" fill-rule="nonzero" stroke="#000"/><circle cx="48.5" cy="13.5" r="4.5" stroke="#ef327d"/><path d="m49 9.24389591-5.0539285-5.05392847c-2.73367-2.73367004-7.1658249-2.73367004-9.8994949 0l-33.54836227 33.54836226" stroke="#ef327d"/><g stroke="#00a6e1"><path d="m28.1286797 17.2855339-9.8357865 9.8357864"/><path d="m30.1966991.96877708-9.1923881 9.19238812"/></g></g></svg>