<svg height="57" viewBox="0 0 48 57" width="48" xmlns="http://www.w3.org/2000/svg"><g fill="none" fill-rule="evenodd" transform="translate(1)"><path d="m8.40990869 9.20917693 17.78247951 8.11008577 17.7824794-8.11008577-17.7824794-8.11008576z" stroke="#000" stroke-width="2"/><path d="m45 10.5h-38v33.0661575l19.1883646 8.7512701 18.8116354-8.7461164z" stroke="#000" stroke-width="2"/><path d="m26 17.5v34.5" stroke="#000" stroke-width="2"/><path d="m33 14.5v34.5" stroke="#000" stroke-width="2"/><path d="m39 12.5v34.5" stroke="#000" stroke-width="2"/><g stroke="#ef327d"><path d="m3 7.5v39l19 8.5" stroke-width="2"/><path d="m0 13.5 2-2"/><path d="m0 19.5 2-2"/><path d="m0 25.5 2-2"/><path d="m0 31.5 2-2"/><path d="m0 37.5 2-2"/><path d="m0 43.5 2-2"/><path d="m3 50.5 2-2"/><path d="m7 52.5 2-2"/><path d="m11 54.5 2-2"/><path d="m15 56.5 2-2"/></g><path d="m13.5 25 4.75-4.75" stroke="#00a6e1" stroke-width="2"/><path d="m11.7458345 33.7541655 7.5041655-7.5041655" stroke="#00a6e1" stroke-width="2"/></g></svg>