<svg height="48" viewBox="0 0 47 48" width="47" xmlns="http://www.w3.org/2000/svg"><g fill="none" fill-rule="evenodd"><g stroke-width="2"><path d="m13 1v22h33v-22z" stroke="#000"/><ellipse cx="33" cy="42.5" rx="2" ry="4.5" stroke="#ef327d"/><path d="m38.0793444 29h-30.5127577c-3.46430461 5.7815816-5.36608429 8.9509931-5.71237756 9.5199296-.49003694.8050976-.85420914 2.476304-.85420914 3.9800704 0 2.5586852 1.05889897 4.5 2 4.5h29v-9.3152222z" stroke="#ef327d"/></g><path d="m23 16h2l-16 24h-2z" fill="#00a6e1"/><path d="m27 16h2l-16 24h-2z" fill="#ef327d"/><path d="m31 16h2l-16 24h-2z" fill="#000"/><path d="m35 16h2l-16 24h-2z" fill="#fdc910"/><path d="m18 15h23" stroke="#000" stroke-width="2"/></g></svg>