<svg height="47" viewBox="0 0 37 47" width="37" xmlns="http://www.w3.org/2000/svg"><g fill="none" fill-rule="evenodd" transform="translate(1)"><path d="m28.4858414 33.9467038h-5.1172183v-2.7623923c0-1.2076091.1434014-2.105755.4302086-2.6944645s.9132451-1.3660962 1.8793324-2.3321836l3.3058136-3.3058136c.6943753-.7547558 1.0415578-1.6906388 1.0415578-2.8076773s-.3622774-2.0453742-1.0868429-2.7850348-1.6604486-1.1094854-2.8076773-1.1094854-2.1057541.3547299-2.875605 1.0642003-1.2151501 1.6529009-1.335911 2.8303199h-5.4794993c.3019023-2.6869305 1.350997-4.7926674 3.1473157-6.317274s4.0379096-2.2868985 6.7248401-2.2868985c2.6869304 0 4.8756892.7321021 6.5663421 2.1963282 1.6906529 1.4642262 2.5359666 3.5095836 2.5359666 6.1361336 0 1.8114137-.4981313 3.3209026-1.4944089 4.5285118-.5736143.7245655-1.0113661 1.2377917-1.3132684 1.539694s-.7019168.6868219-1.2000556 1.1547705-.9207957.8755106-1.2679833 1.2226982c-.3471877.3471876-.6264431.641538-.8377747.8830598-.5434242.6641851-.8151322 1.6000681-.8151322 2.8076773zm-4.9360778 9.0796662c-.6943753-.64909-1.0415578-1.4340242-1.0415578-2.3548262s.339635-1.7132836 1.0189152-2.3774687 1.4944041-.9962726 2.4453964-.9962726c.9509922 0 1.7736636.3245401 2.4680389.97363.6943753.64909 1.0415577 1.4340242 1.0415577 2.3548262s-.3396349 1.7132836-1.0189151 2.3774687-1.4944042.9962726-2.4453964.9962726-1.7736637-.3245401-2.4680389-.97363z" fill="#ef327d"/><g stroke-width="2"><circle cx="17.5" cy="15.5" r="14.5" stroke="#000"/><path d="m8 14c0-4.41827607 3.5817164-8 8-8" stroke="#00a6e1"/><path d="m0 46 11-18" stroke="#000"/></g></g></svg>