<?xml version="1.0" standalone="no"?>
<!DOCTYPE svg PUBLIC "-//W3C//DTD SVG 20010904//EN"
 "http://www.w3.org/TR/2001/REC-SVG-20010904/DTD/svg10.dtd">
<svg version="1.0" xmlns="http://www.w3.org/2000/svg"
 width="832.000000pt" height="832.000000pt" viewBox="0 0 832.000000 832.000000"
 preserveAspectRatio="xMidYMid meet">
<metadata>
Created by potrace 1.11, written by Peter Selinger 2001-2013
</metadata>
<g transform="translate(0.000000,832.000000) scale(0.100000,-0.100000)"
fill="#000000" stroke="none">
<path d="M2306 6812 c-100 -169 -182 -312 -210 -362 -16 -30 -33 -56 -38 -58
-4 -2 -8 -8 -8 -13 0 -5 -50 -96 -112 -202 -62 -105 -120 -207 -129 -225 -10
-18 -22 -38 -27 -45 -5 -7 -22 -37 -38 -67 -16 -30 -31 -57 -34 -60 -3 -3 -11
-15 -17 -27 -7 -13 -19 -33 -25 -45 -7 -13 -15 -25 -18 -28 -3 -3 -13 -21 -24
-40 -57 -106 -80 -145 -88 -148 -4 -2 -8 -8 -8 -13 0 -5 -50 -95 -110 -200
-60 -105 -110 -195 -110 -200 0 -5 -4 -9 -9 -9 -5 0 -14 -12 -21 -27 -19 -47
-34 -73 -42 -73 -5 0 -8 -5 -8 -10 0 -14 -92 -173 -105 -182 -5 -4 -7 -8 -3
-8 5 0 -12 -32 -37 -70 -25 -39 -45 -73 -45 -76 0 -7 -186 -330 -211 -366 -11
-15 -19 -29 -19 -32 0 -4 -86 -154 -121 -211 -10 -16 -22 -37 -26 -45 -4 -8
-45 -80 -92 -160 -46 -80 -90 -156 -98 -170 -8 -14 -24 -43 -36 -65 -55 -98
-62 -110 -67 -115 -3 -3 -48 -79 -99 -170 -52 -91 -134 -233 -183 -316 -98
-170 -95 -145 -33 -249 14 -22 32 -56 42 -75 10 -19 30 -53 43 -75 14 -22 32
-53 40 -70 8 -16 18 -32 21 -35 5 -5 125 -212 221 -381 7 -13 15 -26 18 -29 3
-3 11 -16 18 -30 7 -14 25 -47 42 -75 16 -27 41 -70 55 -95 14 -25 40 -70 57
-101 18 -31 64 -109 102 -175 l69 -119 881 2 c484 1 891 2 903 2 16 1 33 20
66 79 24 42 97 169 162 282 173 299 295 511 315 545 9 17 43 75 75 130 68 118
89 155 123 215 14 25 35 61 47 80 12 19 36 60 52 90 17 30 63 109 101 175 39
66 107 185 153 265 45 80 86 148 91 151 6 3 10 10 10 15 0 9 49 96 109 197 16
26 29 52 29 57 0 6 4 10 8 10 4 0 13 12 19 28 7 15 27 52 45 82 18 31 65 111
103 178 69 121 70 121 87 99 9 -12 25 -39 35 -59 10 -21 22 -38 26 -38 5 0 6
-4 3 -9 -3 -5 1 -14 9 -21 8 -7 15 -19 15 -26 0 -8 5 -14 10 -14 6 0 10 -4 10
-10 0 -5 43 -82 95 -171 52 -89 95 -163 95 -166 0 -3 181 -317 210 -363 8 -14
153 -264 190 -329 8 -14 27 -46 41 -71 15 -25 36 -61 47 -81 42 -75 47 -84 52
-89 3 -3 14 -22 25 -42 11 -21 62 -111 114 -200 52 -90 102 -176 111 -193 10
-16 46 -80 82 -141 36 -61 68 -117 71 -125 4 -8 18 -32 32 -54 14 -22 33 -56
43 -75 9 -19 20 -37 23 -40 3 -3 19 -30 36 -60 17 -30 44 -77 59 -103 71 -119
96 -163 101 -179 3 -10 15 -18 27 -19 11 0 419 -1 906 -2 l885 -2 100 175 c56
96 112 195 126 220 13 25 26 47 29 50 3 3 11 16 19 30 132 232 235 406 244
412 7 4 8 8 4 8 -5 0 0 15 11 33 11 17 28 46 39 64 87 151 153 266 179 311
l31 55 -39 66 c-21 36 -43 73 -48 81 -5 8 -31 52 -57 98 -27 46 -52 91 -58
101 -5 9 -37 64 -69 121 -33 58 -62 107 -65 110 -3 3 -15 23 -27 45 -11 22
-89 158 -172 302 -83 144 -160 277 -171 295 -10 18 -51 89 -91 158 -40 69 -83
144 -96 167 -13 23 -53 92 -89 153 -36 61 -65 115 -65 121 0 5 -4 9 -9 9 -5 0
-11 8 -15 18 -3 9 -19 40 -35 67 -16 28 -41 73 -56 100 -15 28 -33 57 -41 66
-8 8 -14 18 -14 21 0 4 -20 41 -45 82 -25 42 -45 81 -45 86 0 6 -4 10 -10 10
-5 0 -10 4 -10 9 0 9 -53 106 -88 161 -9 14 -17 27 -17 30 -1 6 -101 179 -156
268 -22 35 -39 67 -39 71 0 5 -10 23 -23 42 -13 19 -34 54 -47 79 -14 25 -27
47 -30 50 -3 3 -11 16 -17 30 -7 14 -24 43 -38 65 -14 22 -28 47 -32 55 -4 8
-70 123 -146 255 -77 132 -151 260 -165 285 -14 25 -33 57 -43 71 -10 14 -16
29 -12 33 3 3 1 6 -5 6 -7 0 -12 4 -12 9 0 12 -103 185 -112 189 -5 2 -8 11
-8 20 0 10 -7 25 -14 35 -12 16 -111 17 -1817 17 l-1804 0 -39 -68z"/>
</g>
</svg>
